<?xml version="1.0" standalone="no"?>
<!DOCTYPE svg PUBLIC "-//W3C//DTD SVG 20010904//EN"
 "http://www.w3.org/TR/2001/REC-SVG-20010904/DTD/svg10.dtd">
<svg version="1.0" xmlns="http://www.w3.org/2000/svg"
 width="534.000000pt" height="534.000000pt" viewBox="0 0 534.000000 534.000000"
 preserveAspectRatio="xMidYMid meet">
<metadata>
Created by potrace 1.11, written by Peter Selinger 2001-2013
</metadata>
<g transform="translate(0.000000,534.000000) scale(0.100000,-0.100000)"
fill="#000000" stroke="none">
<path d="M880 3821 l0 -1091 145 0 145 0 0 435 0 435 208 -1 207 0 364 -435
363 -434 185 0 c145 0 183 3 176 13 -4 6 -187 221 -406 476 l-399 464 89 46
c176 91 301 250 339 431 22 104 14 281 -16 368 -61 173 -228 304 -451 354 -85
18 -137 21 -521 25 l-428 5 0 -1091z m821 825 c134 -24 228 -87 276 -184 26
-53 28 -65 27 -177 0 -148 -20 -207 -96 -290 -107 -117 -170 -135 -495 -142
l-243 -5 0 406 0 406 228 0 c145 -1 254 -6 303 -14z"/>
<path d="M3130 3790 l0 -1092 498 5 c306 3 519 9 554 16 290 57 490 215 564
445 21 65 26 102 27 191 1 62 -4 134 -12 165 -46 188 -195 341 -386 395 -33
10 -64 21 -69 25 -4 5 10 18 32 29 67 34 168 136 201 202 78 157 64 374 -33
502 -38 51 -135 118 -213 147 -128 48 -170 52 -680 57 l-483 5 0 -1092z m965
817 c78 -25 141 -70 167 -119 20 -37 23 -58 23 -148 0 -95 -3 -110 -29 -163
-34 -71 -93 -117 -186 -149 -60 -20 -90 -22 -357 -26 l-293 -4 0 317 0 317
313 -4 c250 -4 322 -8 362 -21z m110 -881 c128 -36 223 -117 252 -216 23 -76
23 -229 -1 -298 -23 -68 -97 -149 -173 -189 -104 -56 -172 -65 -535 -70 l-328
-5 0 402 0 402 363 -5 c301 -3 372 -7 422 -21z"/>
<path d="M1760 1520 l0 -1090 145 0 145 0 0 535 0 535 545 0 545 0 0 -535 0
-535 145 0 145 0 0 1090 0 1090 -145 0 -145 0 0 -425 0 -425 -545 0 -545 0 0
425 0 425 -145 0 -145 0 0 -1090z"/>
</g>
</svg>
